<svg width="411" height="823" viewBox="0 0 411 823" fill="none" xmlns="http://www.w3.org/2000/svg">
<g clip-path="url(#clip0_301_36)">
<rect width="411" height="823" fill="#F7F2E8"/>
<path opacity="0.3" d="M79.1076 340.516C79.1141 340.407 79.1442 340.301 79.1958 340.205C79.2475 340.109 79.3194 340.026 79.4066 339.96C79.4938 339.895 79.5941 339.849 79.7007 339.827C79.8072 339.804 79.9174 339.805 80.0235 339.829C80.3414 339.927 80.6448 340.067 80.9262 340.244C81.2615 340.474 81.5841 340.721 81.8925 340.986C84.676 343.306 87.6694 345.361 90.8342 347.126C96.7244 350.528 102.974 353.267 109.469 355.293C114.971 356.962 120.695 357.794 126.447 357.76C130.621 357.747 134.782 357.301 138.865 356.429C143.379 355.432 147.646 353.531 151.408 350.839C154.275 348.73 157.009 346.446 159.597 344.002L159.713 343.85C161.053 342.636 162.366 341.382 163.691 340.138C165.843 338.082 168.017 336.045 170.32 334.105L171.623 333.01C174.675 330.329 177.9 327.851 181.276 325.592C186.185 322.467 191.445 319.934 196.947 318.047C202.305 316.262 207.762 314.788 213.288 313.63C213.73 313.534 214.181 313.489 214.632 313.494C214.742 313.489 214.852 313.508 214.955 313.549C215.057 313.589 215.15 313.651 215.227 313.729C215.304 313.808 215.365 313.901 215.403 314.004C215.442 314.108 215.46 314.218 215.454 314.328C215.439 314.521 215.373 314.707 215.262 314.867C215.086 315.138 214.861 315.374 214.599 315.562C211.938 317.626 209.491 319.951 207.292 322.502L206.64 323.207C205.254 324.7 203.942 326.289 202.687 327.827C201.872 328.889 200.979 329.908 200.085 330.928C195.837 335.97 190.938 340.425 185.515 344.174C178.285 349.153 169.927 352.244 161.203 353.167C159.035 353.353 156.878 353.653 154.741 354.065C153.991 354.187 153.272 354.453 152.623 354.848C148.31 357.465 143.681 359.518 138.849 360.958C138.683 361.015 138.52 361.082 138.362 361.159L137.766 361.405L137.93 361.698C138.049 361.897 138.222 362.058 138.428 362.164C138.634 362.27 138.866 362.316 139.097 362.298L139.265 362.297L142.505 362.559C145.683 362.83 148.975 363.096 152.21 363.317C158.339 363.721 165.046 363.901 172.778 363.831C175.175 363.817 177.609 363.683 180.009 363.449C181.669 363.289 183.284 362.819 184.772 362.064C189.391 359.812 193.742 357.046 197.743 353.818C199.581 352.254 201.337 350.594 203.002 348.847C205.06 346.72 206.921 344.44 208.781 342.161C209.676 340.995 210.686 339.824 211.678 338.676C214.18 335.687 216.844 332.837 219.656 330.138C223.996 326.176 228.828 322.789 234.032 320.061C239.831 317.029 245.937 314.625 252.245 312.892C256.113 311.758 259.977 310.621 263.836 309.481C265.314 309.006 266.766 308.457 268.189 307.836L269.42 307.317C271.522 306.459 273.627 305.604 275.737 304.751C276.102 304.595 276.486 304.485 276.878 304.422C276.994 304.397 277.114 304.401 277.228 304.433C277.341 304.466 277.446 304.526 277.531 304.608C277.614 304.687 277.68 304.783 277.722 304.889C277.765 304.996 277.784 305.11 277.779 305.225C277.77 305.333 277.745 305.438 277.705 305.539C277.439 306.097 277.037 306.579 276.536 306.94L275.328 308.033L273.582 309.584C271.391 311.499 269.365 313.632 267.402 315.684L266.905 316.211C265.319 317.867 263.669 319.51 262.064 321.095L259.867 323.283C258.541 324.601 257.168 325.956 255.786 327.25C250.394 332.389 244.652 337.148 238.602 341.492C232.868 345.306 226.703 348.426 220.237 350.787C216.358 352.23 212.409 353.473 208.404 354.513C206.462 355.042 204.522 355.593 202.583 356.143L199.897 356.918C199.704 356.956 199.515 357.016 199.334 357.097C198.411 357.54 197.518 358.044 196.661 358.604C195.924 359.057 195.149 359.537 194.362 359.935L194.076 360.067L194.228 360.351C194.311 360.556 194.472 360.721 194.675 360.808C194.879 360.895 195.109 360.897 195.315 360.815L195.369 360.745C200.468 359.765 205.861 358.622 212.344 357.092C218.383 355.685 225.399 354.137 232.471 353.023C241.062 351.6 249.781 351.119 258.473 351.591C259.773 351.681 261.092 351.747 262.407 351.793C264.304 351.877 266.262 351.953 268.193 352.137C276.036 352.884 283.759 354.573 291.195 357.17C300.052 360.215 308.737 363.738 317.212 367.723L319.57 368.773L321.808 369.786C322.389 370.058 322.941 370.389 323.456 370.773C323.549 370.834 323.625 370.919 323.675 371.019C323.725 371.119 323.747 371.231 323.74 371.343L323.696 371.569C323.659 371.722 323.576 371.86 323.459 371.965C323.342 372.071 323.196 372.138 323.04 372.159C322.65 372.197 322.257 372.182 321.871 372.114C315.142 371.022 308.303 370.753 301.506 371.312L299.342 371.504C297.754 371.62 296.093 371.735 294.478 371.96C291.153 372.41 287.8 372.97 284.551 373.515L283.062 373.744C275.08 375.032 264.401 376.362 253.523 374.963C248.892 374.337 244.324 373.312 239.871 371.899C234.561 370.208 229.511 367.791 224.864 364.718C223.275 363.702 221.691 362.561 220.281 361.553C219.962 361.309 219.592 361.138 219.199 361.055C218.806 360.971 218.399 360.975 218.007 361.068L215.967 361.485L212.174 362.281C212 362.3 211.838 362.378 211.713 362.501C211.589 362.624 211.509 362.785 211.487 362.958C211.497 363.11 211.541 363.258 211.614 363.391C211.688 363.525 211.789 363.64 211.912 363.73L212.96 364.534C214.439 365.669 215.904 366.942 217.501 368.019C221.643 370.747 226.001 373.131 230.532 375.148L231.875 375.808C236.357 377.918 240.7 380.311 244.879 382.971C246.904 384.285 248.532 385.442 249.862 386.481C252.675 388.706 255.231 391.239 257.48 394.033C260.421 397.671 263.051 401.55 265.343 405.628L266.752 408.156C268.403 411.091 270.097 414.115 271.706 417.129C272.255 418.125 272.854 419.104 273.439 420.053L274.398 421.624C274.709 422.12 274.986 422.636 275.229 423.169C275.279 423.307 275.306 423.453 275.306 423.599C275.289 423.816 275.192 424.019 275.035 424.17C274.898 424.299 274.727 424.387 274.543 424.423C274.358 424.458 274.167 424.44 273.992 424.371C273.625 424.229 273.277 424.043 272.956 423.816C268.113 420.42 263.041 417.364 257.776 414.667C253.678 412.486 250.072 410.386 246.753 408.227C243.401 406.143 240.243 403.763 237.317 401.115C234.127 398.126 231.229 394.84 228.661 391.301C224.621 385.705 220.939 379.858 217.637 373.796C217.024 372.642 216.17 371.633 215.135 370.837C213.528 369.604 211.875 368.335 210.363 367.026L208.908 365.909C208.448 365.57 208.025 365.183 207.647 364.756C207.315 364.309 206.853 363.976 206.324 363.802C205.795 363.628 205.224 363.622 204.691 363.785C193.954 365.849 183.109 367.302 172.209 368.139C166.95 368.599 161.667 368.736 156.392 368.547L155.144 368.534L154.336 368.526L154.297 368.793L154.244 368.863C154.233 369.033 154.283 369.202 154.383 369.339C154.483 369.477 154.628 369.576 154.793 369.618L154.898 369.699L155.989 370.35C156.648 370.745 157.327 371.137 157.96 371.567C158.835 372.153 159.794 372.602 160.805 372.898C167.019 374.891 173.435 376.192 179.937 376.777C180.583 376.827 181.258 376.864 181.939 376.868C186.196 376.848 190.448 377.132 194.663 377.718C199.169 378.328 203.561 379.589 207.702 381.461C210.58 382.781 213.297 384.425 215.801 386.361C217.652 387.782 219.47 389.27 221.286 390.738C223.614 392.525 225.979 394.506 228.365 396.338C231.241 398.546 234.489 401.039 237.85 403.266C238.384 403.63 238.897 404.023 239.387 404.445C239.618 404.655 239.808 404.907 239.945 405.189C240.027 405.36 240.066 405.549 240.058 405.739C240.055 405.858 240.027 405.975 239.976 406.083C239.925 406.191 239.853 406.287 239.763 406.365C239.66 406.455 239.54 406.522 239.41 406.562C239.28 406.603 239.143 406.616 239.008 406.601C238.496 406.562 237.99 406.46 237.502 406.298C236.039 405.855 234.524 405.609 232.996 405.564L230.494 405.497C227.711 405.363 224.834 405.23 222.025 404.817C214.668 403.73 207.601 401.198 201.231 397.365C198.116 395.459 195.132 393.348 192.298 391.046L187.924 387.559L183.572 384.07C181.898 382.768 180.107 381.623 178.222 380.65C177.565 380.282 176.86 380.008 176.126 379.838C173.655 379.313 171.183 378.806 168.709 378.316L168.605 378.236C168.402 378.163 168.185 378.14 167.971 378.17C167.758 378.2 167.555 378.282 167.38 378.408L167.093 378.614L167.729 379.232L168.583 380.072L169.081 380.603L169.699 381.245C172.841 384.347 176.202 387.218 179.757 389.835C180.991 390.783 182.277 391.639 183.544 392.519C184.811 393.399 185.743 394.041 186.821 394.83C189.805 396.932 192.646 399.23 195.325 401.71L195.996 402.354C197.07 403.364 198.136 404.386 199.175 405.443C201.923 408.199 204.412 411.201 206.611 414.413C208.594 417.325 210.277 420.025 211.741 422.65C213.751 426.25 216.098 429.701 218.37 433.057L219.718 435.037C219.992 435.452 220.275 435.854 220.519 436.283C220.686 436.564 220.808 436.87 220.879 437.189C220.911 437.299 220.922 437.415 220.913 437.53C220.906 437.653 220.875 437.772 220.82 437.882C220.766 437.992 220.689 438.09 220.596 438.169C220.502 438.248 220.393 438.307 220.275 438.343C220.158 438.378 220.035 438.389 219.913 438.375C219.221 438.325 218.543 438.156 217.909 437.875L217.193 437.603C215.561 436.981 213.874 436.335 212.223 435.642C207.757 433.746 203.447 431.504 199.331 428.936C197.882 428.027 196.47 426.999 195.092 425.997L194.196 425.309L192.647 424.121C192.158 423.745 191.681 423.379 191.204 423.013C189.005 421.368 187.012 419.465 185.267 417.344C181.368 412.802 178.314 407.595 176.251 401.972C175.233 399.152 174.354 396.586 173.572 394.133C172.572 391.08 171.202 388.162 169.493 385.442C168.331 383.658 166.939 382.035 165.354 380.615C163.295 378.654 161.075 376.869 158.717 375.281C156.025 373.451 153.222 371.789 150.326 370.304L149.587 369.941L148.705 369.523C146.42 368.35 143.92 367.654 141.356 367.479C135.501 366.986 129.687 366.096 123.954 364.817C113.272 362.519 102.954 358.777 93.2846 353.696C90.0397 352.02 86.9095 350.131 83.9142 348.042C83.3437 347.604 82.6783 347.242 82.1006 346.91C81.4452 346.568 80.9433 345.991 80.6953 345.294L80.2455 344.096L79.1928 341.249C79.1172 341.05 79.0722 340.84 79.0592 340.627L79.1076 340.516ZM205.766 317.717L205.758 317.414L205.447 317.434C204.731 317.515 204.028 317.685 203.355 317.942L203.154 318.01C195.185 320.716 187.722 324.736 181.075 329.904C175.016 334.674 169.291 339.854 163.94 345.407C163.653 345.78 163.264 346.094 162.893 346.457C162.521 346.821 162.037 347.283 161.632 347.714L161.561 347.807C161.462 347.879 161.378 347.971 161.316 348.076C161.254 348.182 161.215 348.299 161.201 348.421C161.191 348.572 161.232 348.722 161.319 348.845L161.428 349.04L161.785 348.962C161.927 348.94 162.066 348.904 162.2 348.854L162.46 348.757C163.097 348.505 163.756 348.25 164.379 347.969C169.463 345.573 174.274 342.635 178.728 339.205C182.56 336.382 186.283 333.29 189.885 330.309L192.929 327.789L194.027 326.889C197.573 323.82 201.342 321.019 205.304 318.512C205.43 318.449 205.537 318.353 205.612 318.234C205.687 318.115 205.728 317.978 205.73 317.837L205.766 317.717ZM207.168 319.145C205.902 319.435 204.714 319.996 203.685 320.79C200.637 322.881 197.727 325.226 195.23 327.275C193.91 328.351 192.596 329.436 191.287 330.532C188.299 333.002 185.207 335.56 182.097 337.973C176.243 342.75 169.774 346.719 162.865 349.772C162.692 349.795 162.531 349.874 162.409 349.999C162.287 350.123 162.209 350.285 162.19 350.459L162.185 350.659L162.348 350.784C162.488 350.852 162.641 350.89 162.797 350.894C162.953 350.899 163.108 350.87 163.252 350.811L163.414 350.768C167.592 349.788 171.688 348.481 175.663 346.862C182.922 343.951 189.443 339.458 194.75 333.709C196.065 332.309 197.343 330.861 198.62 329.414C199.26 328.7 199.889 327.978 200.529 327.265L201.109 326.653L202.121 325.576C203.707 323.847 205.305 322.126 206.894 320.418C207.02 320.254 207.154 320.079 207.279 319.916L207.933 319.065L207.168 319.145ZM212.933 432.017C211.702 431.077 210.522 430.072 209.397 429.007C208.61 428.273 207.799 427.521 206.944 426.827C206.269 426.309 205.605 425.799 205.075 425.189L203.85 423.989C201.658 421.806 199.385 419.561 197.25 417.256C193.392 413.068 189.756 408.681 186.357 404.113C183.787 400.639 181.2 397.189 178.609 393.718L178.458 393.601C178.359 393.387 178.2 393.206 177.999 393.082C177.798 392.958 177.565 392.895 177.329 392.902L177.018 392.922L177.035 393.214C177.098 393.824 177.268 394.419 177.537 394.97L177.745 395.519C178.91 399.136 180.361 402.655 182.083 406.041C185.198 411.721 189.332 416.779 194.277 420.96C196.205 422.644 198.323 424.343 200.769 426.147C202.418 427.36 204.135 428.48 205.91 429.5C207.393 430.341 208.94 431.121 210.441 431.865L211.843 432.57C212.075 432.749 212.534 432.971 212.977 432.514L213.183 432.246L212.933 432.017ZM214.735 430.972C214.697 430.624 214.556 430.296 214.329 430.03L214.201 429.932C212.577 427.443 211.097 424.936 210.007 423.006C208.726 420.818 207.377 418.67 206.22 416.874C202.42 411.074 197.801 405.856 192.506 401.381C189.974 399.16 187.222 397.177 184.542 395.269L181.58 393.125C181.147 392.809 180.693 392.523 180.222 392.268L179.53 391.867L178.973 391.532L179.068 392.179C179.164 392.643 179.387 393.07 179.711 393.414L179.933 393.584L181.581 395.776C182.657 397.195 183.744 398.622 184.772 400.079C189.113 406.14 193.839 411.916 198.921 417.37C203.382 422.171 208.194 426.633 213.319 430.719L213.47 430.835C213.597 430.98 213.757 431.093 213.935 431.166C214.114 431.238 214.307 431.269 214.499 431.254L214.779 431.228L214.735 430.972ZM229.588 400.483L228.644 399.759C227.923 399.205 227.189 398.642 226.414 398.158C224.651 397.047 222.995 395.776 221.465 394.36C219.647 392.631 217.687 391.015 215.787 389.464L215.007 388.866C211.555 386.035 207.681 383.762 203.526 382.13C199.044 380.268 194.267 379.212 189.416 379.011L189.225 378.994C189.037 378.943 188.837 378.949 188.652 379.011C188.466 379.073 188.302 379.188 188.181 379.342L188.092 379.458L188.131 379.6C188.188 379.789 188.302 379.956 188.459 380.077C188.616 380.197 188.807 380.265 189.005 380.27L189.21 380.316C193.648 381.726 197.866 383.753 201.739 386.337L206.285 389.382L208.73 391.017C213.135 393.959 217.761 396.555 222.567 398.783C224.531 399.707 226.541 400.532 228.588 401.254C228.677 401.308 228.776 401.341 228.879 401.354C228.982 401.366 229.086 401.356 229.185 401.325C229.283 401.294 229.375 401.243 229.452 401.174C229.53 401.106 229.592 401.022 229.635 400.927L229.796 400.717L229.588 400.483ZM224.813 401.063C224.422 400.706 223.959 400.438 223.454 400.279L223.032 400.178C217.642 397.724 212.452 394.856 207.507 391.598L203.477 388.894C202.259 388.071 201.05 387.235 199.896 386.498C196.752 384.455 193.36 382.824 189.802 381.642C189.515 381.533 189.161 381.391 188.846 381.706L188.766 381.811L188.712 381.881C188.711 382.025 188.751 382.167 188.826 382.29C188.901 382.414 189.01 382.513 189.138 382.578L189.232 382.65L190.85 383.892L196.243 388.291L199.562 390.838L202.379 393C203.714 394.049 205.146 394.968 206.656 395.745C212.052 398.595 217.872 400.559 223.894 401.562C224.069 401.625 224.259 401.637 224.441 401.596C224.623 401.555 224.789 401.463 224.921 401.331L225.101 401.098L224.813 401.063ZM266.747 310.51C266.179 310.48 265.612 310.602 265.106 310.864L264.938 310.939C261.118 312.526 257.219 313.913 253.256 315.095C249.68 316.187 246.143 317.42 243.169 318.474C236.91 320.783 231.18 324.337 226.327 328.919C222.502 332.416 218.966 336.217 215.754 340.284C214.67 341.696 213.526 343.042 212.408 344.426L211.728 345.313C210.957 346.317 210.105 347.256 209.183 348.123C208.859 348.418 208.565 348.745 208.304 349.098C208.251 349.168 208.197 349.238 208.143 349.308C207.797 349.664 207.524 350.084 207.341 350.546L207.065 351.316L208.567 350.467C209.016 350.219 209.386 350.003 209.756 349.786C212.473 348.116 215.1 346.302 217.626 344.353C219.683 342.782 221.72 341.213 223.766 339.632C225.812 338.051 227.763 336.546 229.791 334.988L230.476 334.458C234.916 331.082 239.456 327.579 244.233 324.536C247.474 322.483 250.858 320.557 254.144 318.686L256.67 317.252C259.583 315.577 262.506 313.891 265.405 312.187L265.659 312.048C266.174 311.798 266.628 311.438 266.988 310.992L267.319 310.56L266.747 310.51ZM266.842 313.327L266.841 313.159L266.802 312.777L266.451 312.897C266.406 312.955 266.309 312.936 266.25 312.965C266.106 312.989 265.967 313.04 265.84 313.114C262.73 315.045 259.489 316.857 256.348 318.636C254.668 319.571 253.026 320.553 251.314 321.482C246.648 324.127 242.139 327.04 237.809 330.207C233.069 333.779 229.142 336.678 225.613 339.492L223.958 340.78C218.876 344.894 213.561 348.712 208.041 352.214L208.269 352.76L208.543 352.692C208.735 352.635 208.929 352.599 209.13 352.53L211.203 351.879C212.924 351.347 214.646 350.815 216.333 350.256C223.057 347.995 229.492 344.944 235.501 341.169C240.854 337.785 245.911 333.953 250.619 329.715C253.078 327.525 255.591 325.19 258.248 322.596C259.995 320.898 261.703 319.131 263.365 317.423L265.435 315.305L265.507 315.212C265.729 314.969 265.93 314.708 266.106 314.43C266.158 314.353 266.215 314.278 266.277 314.209C266.433 314.119 266.568 313.998 266.674 313.852C266.78 313.706 266.853 313.539 266.889 313.363L266.842 313.327ZM267.272 413.745C267.285 413.629 267.266 413.512 267.218 413.406L265.482 410.221C263.95 407.395 262.445 404.535 260.886 401.745C259.419 399.22 257.591 396.924 255.46 394.929C253.852 393.384 252.142 391.947 250.341 390.63C248.042 388.978 245.628 387.491 243.119 386.18C240.713 384.927 238.249 383.702 235.89 382.485C232.084 380.621 228.145 378.691 224.399 376.557L224.306 376.485C224.17 376.371 224.002 376.303 223.826 376.291C223.649 376.278 223.473 376.323 223.322 376.417L223.062 376.587L223.296 376.934L223.472 377.162C226.661 380.666 230.063 383.97 233.658 387.056L234.359 387.686C236.207 389.327 238.162 390.902 240.068 392.42L242.445 394.337C244.122 395.624 245.833 396.938 247.529 398.128L250.132 400.015C254.086 402.939 257.812 406.039 260.941 408.663C261.558 409.137 262.104 409.704 262.655 410.239L263.17 410.726L265.728 413.153L267.355 414.698L267.353 413.881L267.272 413.745ZM268.292 417.864L268.158 417.557C268.12 417.398 268.039 417.253 267.925 417.137C266.266 415.345 264.358 413.324 262.329 411.508L261.502 410.873C261.025 410.507 260.536 410.132 260.139 409.66C257.117 406.807 253.892 404.177 250.49 401.791L247.379 399.552C246.017 398.506 244.601 397.531 243.194 396.543C239.17 393.602 235.338 390.407 231.72 386.977L230.817 386.154C229.64 385.084 228.476 383.949 227.358 382.85L226.025 381.549L224.379 379.934L222.936 378.511L223.113 379.462C223.261 380.138 223.533 380.78 223.915 381.357C226.261 385.122 228.537 388.426 230.92 391.515C234.116 395.839 237.909 399.686 242.186 402.943L243.882 404.133L245.705 405.421C248.193 407.226 250.798 408.866 253.501 410.33C255.888 411.68 258.293 413.006 260.697 414.333L264.199 416.279L267.905 418.345L268.695 418.785L268.292 417.864ZM310.118 368.673L309.757 368.396C309.653 368.309 309.53 368.246 309.398 368.213C302.489 366.879 295.508 365.945 288.49 365.418C282.282 365.046 275.934 365.048 270.455 365.124C261.877 365.276 253.3 364.854 244.781 363.861C239.9 363.32 235.078 362.342 230.373 360.939L230.054 360.824C229.621 360.631 229.145 360.553 228.673 360.598L228.293 360.659L228.445 361.016C228.475 361.178 228.557 361.325 228.678 361.436C229.109 361.767 229.539 362.097 229.97 362.428L230.696 362.856C230.906 363.017 231.104 363.169 231.367 363.259C235.481 365.91 239.922 368.016 244.578 369.525C248.078 370.655 251.719 371.503 255.24 372.315L255.402 372.346C261.862 373.693 268.519 373.817 275.028 372.712C276.985 372.453 278.927 372.164 280.878 371.864C282.306 371.644 283.754 371.42 285.184 371.221C289.112 370.658 293.146 370.344 297.033 370.028C298.976 369.907 300.849 369.733 302.743 369.555L303.598 369.526L304.183 369.511L310.956 369.149L310.118 368.673ZM309.775 366.444C309.255 366.117 308.703 365.842 308.128 365.625L307.85 365.505C302.589 363.32 297.202 361.54 292.538 360.072C287.685 358.64 282.725 357.597 277.705 356.955C269.106 355.75 260.398 355.487 251.738 356.171C244.57 356.712 237.516 357.562 230.817 358.648C230.638 358.636 230.46 358.685 230.314 358.789C230.167 358.892 230.06 359.043 230.012 359.216L229.931 359.321L230.047 359.411C230.344 359.713 230.73 359.912 231.148 359.977L231.461 360.051C234.23 360.902 237.056 361.554 239.919 362.001C249.118 363.453 258.423 364.141 267.738 364.059C273.326 364.01 278.308 364.053 282.872 364.108C291.207 364.34 299.509 365.245 307.696 366.814L307.998 366.879C308.523 367.023 309.074 367.046 309.61 366.948L310.355 366.797L309.775 366.444Z" fill="url(#paint0_linear_301_36)"/>
<path d="M413.055 692.844C412.991 692.883 412.921 692.908 412.847 692.918C412.773 692.928 412.699 692.922 412.627 692.902C412.557 692.884 412.492 692.852 412.435 692.807C412.378 692.763 412.331 692.707 412.297 692.643C412.226 692.431 412.185 692.211 412.176 691.988C412.157 691.717 412.163 691.444 412.192 691.174C412.349 688.753 412.279 686.322 411.983 683.914C411.511 679.373 410.535 674.899 409.073 670.575C407.808 666.937 406.005 663.509 403.723 660.405C402.073 658.154 400.197 656.079 398.123 654.212C395.802 652.163 393.091 650.603 390.152 649.627C387.887 648.905 385.579 648.323 383.242 647.885L383.11 647.858C381.928 647.615 380.732 647.388 379.537 647.161C377.601 646.81 375.604 646.437 373.659 645.951L372.582 645.702C369.94 645.108 367.341 644.34 364.8 643.402C361.182 641.979 357.745 640.132 354.561 637.9C351.485 635.709 348.54 633.34 345.741 630.804C345.507 630.612 345.303 630.387 345.134 630.136C345.089 630.077 345.057 630.01 345.039 629.939C345.021 629.867 345.017 629.793 345.029 629.72C345.041 629.647 345.068 629.577 345.108 629.515C345.148 629.453 345.2 629.4 345.261 629.359C345.371 629.29 345.497 629.253 345.626 629.251C345.844 629.244 346.062 629.274 346.27 629.337C348.439 629.979 350.668 630.396 352.922 630.584L353.564 630.656C354.915 630.815 356.286 630.899 357.612 630.975C358.509 631.032 359.394 631.103 360.305 631.158C364.705 631.468 369.044 632.363 373.208 633.819C378.743 635.776 383.701 639.087 387.631 643.449C388.616 644.541 389.585 645.607 390.657 646.59C391.024 646.943 391.451 647.227 391.918 647.428C395.037 648.733 397.973 650.437 400.652 652.498C400.739 652.577 400.831 652.649 400.927 652.715L401.296 652.941L401.385 652.731C401.448 652.59 401.468 652.433 401.443 652.281C401.418 652.128 401.35 651.986 401.247 651.872L401.168 651.81L400.065 649.976C398.956 648.151 397.804 646.267 396.643 644.426C394.453 640.95 391.9 637.239 388.831 633.085C387.878 631.789 386.85 630.524 385.78 629.327C385.045 628.488 384.16 627.792 383.17 627.276C380.129 625.673 376.92 624.41 373.602 623.51C372.033 623.13 370.445 622.833 368.845 622.62C366.883 622.35 364.889 622.233 362.953 622.123C361.95 622.073 360.939 622.016 359.932 621.937C357.339 621.753 354.757 621.423 352.201 620.949C348.352 620.16 344.621 618.882 341.098 617.146C337.188 615.201 333.494 612.849 330.079 610.128C327.956 608.46 325.81 606.837 323.668 605.192C322.834 604.574 321.965 604.005 321.064 603.489C320.836 603.31 320.557 603.18 320.31 603.024C319.004 602.226 317.704 601.421 316.41 600.607C316.182 600.473 315.973 600.309 315.789 600.119C315.732 600.065 315.689 599.999 315.663 599.925C315.637 599.852 315.628 599.773 315.638 599.696C315.656 599.62 315.691 599.55 315.739 599.489C315.787 599.428 315.847 599.378 315.916 599.342C315.978 599.305 316.044 599.275 316.112 599.254C316.517 599.192 316.931 599.217 317.325 599.33L318.402 599.578C318.913 599.688 319.417 599.791 319.93 599.915C321.825 600.335 323.772 600.593 325.661 600.844L326.132 600.909C327.651 601.111 329.192 601.368 330.673 601.603L332.714 601.935C333.942 602.137 335.22 602.34 336.466 602.582C341.359 603.475 346.182 604.715 350.899 606.292C355.183 607.812 359.271 609.834 363.08 612.316C365.389 613.845 367.617 615.494 369.754 617.255C370.816 618.089 371.877 618.924 372.899 619.727L374.378 620.888C374.474 620.976 374.576 621.057 374.684 621.129C375.291 621.451 375.915 621.737 376.553 621.988C377.093 622.208 377.662 622.439 378.186 622.711L378.351 622.84L378.474 622.683C378.552 622.556 378.576 622.404 378.543 622.259C378.51 622.114 378.421 621.987 378.296 621.907L378.241 621.864C375.706 619.49 372.96 617.028 369.613 614.117C366.473 611.396 362.821 608.195 359.496 604.819C355.345 600.732 351.654 596.203 348.489 591.312C348.022 590.563 347.536 589.838 347.049 589.099C346.352 588.043 345.623 586.948 344.97 585.837C342.272 581.311 340.127 576.478 338.578 571.441C336.746 565.445 335.236 559.355 334.054 553.197C333.937 552.634 333.82 552.071 333.688 551.51C333.557 550.949 333.452 550.435 333.352 549.898C333.274 549.475 333.237 549.046 333.241 548.615C333.238 548.541 333.255 548.466 333.289 548.399C333.324 548.333 333.375 548.276 333.438 548.236L333.579 548.169C333.676 548.128 333.784 548.118 333.886 548.142C333.989 548.165 334.081 548.221 334.151 548.3C334.326 548.491 334.474 548.706 334.59 548.938C336.656 553.019 339.211 556.833 342.198 560.296C342.512 560.657 342.82 561.026 343.128 561.395C343.784 562.178 344.539 563.064 345.295 563.849C346.849 565.464 348.466 567.065 350.033 568.615L350.751 569.319C354.62 573.135 359.512 578.353 363.031 584.832C364.512 587.588 365.751 590.468 366.734 593.439C367.906 596.981 368.587 600.666 368.76 604.392C368.826 605.651 368.821 606.984 368.85 608.113C368.844 608.383 368.897 608.651 369.006 608.899C369.114 609.147 369.275 609.368 369.478 609.547L370.501 610.478L372.426 612.22C372.506 612.307 372.612 612.364 372.728 612.384C372.844 612.403 372.963 612.384 373.066 612.329C373.145 612.265 373.209 612.185 373.252 612.093C373.295 612.002 373.317 611.901 373.316 611.8L373.358 610.905C373.418 609.68 373.496 608.367 373.476 607.081C373.323 603.774 372.904 600.486 372.226 597.246L372.049 596.306C371.425 593.038 371.005 589.735 370.791 586.415C370.712 584.801 370.691 583.5 370.735 582.327C370.833 579.932 371.195 577.555 371.815 575.239C372.607 572.211 373.654 569.255 374.943 566.403L375.763 564.631C376.694 562.59 377.665 560.479 378.664 558.415C378.988 557.728 379.28 557.017 379.559 556.321L380.029 555.189C380.175 554.824 380.347 554.47 380.543 554.13C380.586 554.043 380.647 553.965 380.722 553.902C380.783 553.862 380.852 553.835 380.923 553.821C380.995 553.808 381.069 553.808 381.14 553.824C381.264 553.845 381.378 553.903 381.468 553.99C381.558 554.077 381.621 554.189 381.647 554.311C381.717 554.565 381.755 554.825 381.762 555.088C381.833 559.037 382.175 562.977 382.784 566.88C383.225 569.961 383.509 572.74 383.641 575.388C383.841 578.025 383.801 580.676 383.523 583.307C383.155 586.211 382.519 589.074 381.621 591.86C380.195 596.25 378.493 600.545 376.526 604.721C376.152 605.506 375.944 606.36 375.916 607.23C375.887 608.593 375.812 609.984 375.737 611.325L375.67 612.543C375.666 612.933 375.617 613.322 375.524 613.7C375.413 614.059 375.415 614.443 375.53 614.8C375.646 615.157 375.869 615.47 376.169 615.695C381.509 620.697 386.565 625.995 391.312 631.563C393.624 634.235 395.775 637.042 397.754 639.97L398.227 640.647L398.543 641.086L398.711 641.002L398.748 640.954C398.844 640.893 398.916 640.801 398.952 640.693C398.988 640.585 398.987 640.468 398.947 640.361L398.929 640.27L398.848 639.418C398.802 638.911 398.746 638.384 398.767 637.904C398.739 637.204 398.606 636.511 398.371 635.851C397.012 631.704 395.199 627.72 392.965 623.972C392.743 623.607 392.492 623.231 392.226 622.857C390.552 620.567 389.042 618.161 387.709 615.657C386.266 612.98 385.221 610.106 384.606 607.127C384.189 605.049 384.007 602.931 384.062 600.812L384.268 596.115C384.365 594.131 384.461 592.082 384.512 590.075C384.577 587.646 384.653 584.895 384.517 582.219C384.492 581.795 384.491 581.369 384.514 580.945C384.531 580.735 384.591 580.531 384.692 580.346C384.743 580.232 384.821 580.133 384.92 580.056C384.985 580.01 385.059 579.979 385.137 579.964C385.215 579.948 385.295 579.949 385.372 579.966C385.46 579.99 385.542 580.032 385.613 580.088C385.685 580.144 385.745 580.214 385.789 580.293C385.971 580.589 386.114 580.907 386.216 581.239C386.554 582.205 387.018 583.121 387.597 583.965L388.52 585.25C389.589 586.823 390.578 588.449 391.483 590.122C393.782 594.528 395.183 599.347 395.605 604.298C395.809 606.734 395.846 609.18 395.714 611.621L395.543 615.366C395.5 616.603 395.456 617.84 395.404 619.072C395.357 620.491 395.442 621.911 395.656 623.314C395.717 623.813 395.847 624.301 396.044 624.763C396.733 626.314 397.431 627.854 398.136 629.384L398.176 629.479C398.217 629.617 398.291 629.743 398.391 629.846C398.492 629.95 398.616 630.027 398.753 630.072L398.975 630.145L399.061 629.551L399.187 628.759L399.272 628.279L399.379 627.689C399.819 624.777 400.047 621.836 400.061 618.89C400.065 617.85 400.04 616.813 399.984 615.752C399.928 614.69 399.94 613.963 399.94 613.072C399.907 610.623 400.035 608.174 400.321 605.741L400.397 605.127C400.536 604.141 400.674 603.156 400.826 602.169C401.23 599.596 401.874 597.065 402.747 594.611C403.541 592.386 404.344 590.41 405.179 588.586C406.33 586.069 407.276 583.442 408.195 580.896L408.739 579.378C408.852 579.072 408.957 578.761 409.129 578.412C409.215 578.211 409.332 578.024 409.476 577.858L409.612 577.685C409.681 577.64 409.758 577.61 409.839 577.596C409.921 577.583 410.004 577.586 410.083 577.606C410.163 577.626 410.238 577.662 410.304 577.712C410.369 577.762 410.423 577.825 410.463 577.896C410.703 578.289 410.877 578.718 410.979 579.166L411.118 579.67C411.424 580.801 411.736 581.974 412.004 583.138C412.735 586.305 413.221 589.523 413.457 592.764C413.53 593.902 413.535 595.076 413.536 596.208L413.534 596.97C413.537 597.405 413.511 597.842 413.499 598.278C413.487 598.714 413.455 599.095 413.447 599.509C413.43 601.345 413.19 603.172 412.732 604.95C411.804 608.851 410.186 612.554 407.955 615.886C406.837 617.551 405.791 619.044 404.776 620.433C403.505 622.165 402.454 624.047 401.645 626.036C401.136 627.37 400.805 628.765 400.661 630.185C400.415 632.075 400.324 633.982 400.39 635.886C400.461 638.063 400.667 640.234 401.006 642.386L401.106 642.922L401.213 643.579C401.482 645.276 402.091 646.901 403.004 648.356C405.045 651.721 406.854 655.221 408.42 658.831C411.379 665.521 413.416 672.581 414.476 679.819C414.837 682.235 415.046 684.672 415.102 687.115C415.109 687.591 415.161 688.076 415.234 688.566C415.302 689.053 415.189 689.548 414.916 689.957L414.44 690.677L413.338 692.354C413.267 692.476 413.18 692.587 413.078 692.684L413.055 692.844ZM350.862 633.238L350.738 633.395L350.895 633.519C351.22 633.875 351.588 634.19 351.99 634.456L352.1 634.542C356.7 637.779 361.81 640.221 367.218 641.766C372.177 643.168 377.227 644.225 382.332 644.932L383.291 645.087C383.697 645.153 384.09 645.219 384.481 645.272L384.536 645.315C384.612 645.341 384.693 645.351 384.773 645.344C384.853 645.336 384.931 645.313 385.001 645.274C385.087 645.213 385.154 645.128 385.193 645.03L385.273 644.928L385.076 644.773C385.01 644.708 384.936 644.65 384.856 644.6L384.707 644.483C384.345 644.199 383.928 643.985 383.531 643.762C380.241 641.948 376.764 640.495 373.162 639.43C370.111 638.457 366.99 637.67 363.956 636.902L361.392 636.248L360.474 636.009C357.424 635.3 354.431 634.364 351.52 633.209C351.435 633.164 351.34 633.143 351.244 633.148C351.148 633.153 351.055 633.185 350.976 633.238L350.862 633.238ZM351.081 631.922C351.736 632.492 352.506 632.915 353.338 633.162C355.674 633.992 358.094 634.635 360.182 635.182C361.246 635.446 362.388 635.758 363.49 636.039C366.002 636.678 368.596 637.342 371.126 638.072C376.014 639.354 380.706 641.295 385.071 643.841C385.221 643.959 385.425 644.119 385.708 643.921L385.782 643.827L385.787 643.691C385.766 643.587 385.723 643.489 385.663 643.402C385.602 643.315 385.524 643.241 385.434 643.185L385.356 643.123C383.178 641.26 380.858 639.569 378.418 638.066C373.98 635.286 368.979 633.528 363.778 632.921C362.499 632.768 361.21 632.645 359.928 632.528L358.036 632.313C357.849 632.293 357.661 632.273 357.472 632.238L356.482 632.122C354.928 631.931 353.376 631.754 351.823 631.577C351.685 631.559 351.546 631.552 351.408 631.556L350.684 631.521L351.081 631.922ZM409.869 584.221C409.851 585.261 409.773 586.3 409.637 587.332C409.551 588.04 409.462 588.785 409.421 589.516C409.403 590.073 409.354 590.628 409.272 591.179L409.102 592.317C408.776 594.351 408.476 596.48 408.038 598.527C407.293 602.266 406.353 605.964 405.222 609.604L402.643 617.968L402.568 618.063C402.493 618.203 402.46 618.362 402.473 618.521C402.485 618.68 402.544 618.832 402.64 618.959L402.759 619.115L402.922 618.989C403.218 618.717 403.469 618.398 403.663 618.045L403.91 617.731C405.403 615.674 406.731 613.503 407.882 611.237C409.734 607.314 410.846 603.084 411.164 598.757C411.314 597.044 411.395 595.226 411.409 593.202C411.417 591.828 411.345 590.455 411.193 589.09C411.071 587.951 410.877 586.806 410.687 585.703L410.521 584.669C410.535 584.528 410.494 584.387 410.406 584.275C410.318 584.164 410.191 584.09 410.05 584.071L409.819 584.041L409.869 584.221ZM408.599 583.668C408.426 583.825 408.304 584.031 408.249 584.258L408.181 584.345C407.485 586.201 406.711 587.996 406.118 589.349C405.429 590.906 404.805 592.477 404.281 593.807C402.646 598.149 401.638 602.701 401.288 607.327C401.087 609.573 401.096 611.844 401.097 614.045C401.108 614.855 401.098 615.661 401.098 616.487C401.105 616.846 401.134 617.204 401.183 617.559L401.233 618.095L401.278 618.524L401.543 618.186C401.776 618.016 401.96 617.787 402.077 617.524L402.125 617.333L402.662 615.58C403.002 614.436 403.348 613.283 403.718 612.149C405.297 607.4 406.569 602.554 407.526 597.641C408.364 593.334 408.881 588.971 409.072 584.587L409.085 584.457C409.116 584.332 409.116 584.201 409.086 584.076C409.056 583.951 408.997 583.835 408.913 583.737L408.764 583.62L408.599 583.668ZM386.272 587.642L386.268 588.44C386.254 589.04 386.232 589.684 386.282 590.283C386.363 591.674 386.314 593.07 386.134 594.453C385.914 596.124 385.818 597.816 385.723 599.459L385.688 600.118C385.507 603.114 385.803 606.119 386.564 609.022C387.328 612.176 388.635 615.174 390.425 617.881C390.455 617.918 390.479 617.958 390.497 618.001C390.54 618.124 390.618 618.233 390.721 618.314C390.824 618.395 390.948 618.445 391.079 618.458L391.171 618.454L391.226 618.383C391.306 618.277 391.351 618.148 391.356 618.015C391.36 617.882 391.324 617.751 391.251 617.64L391.194 617.518C390.198 614.555 389.629 611.465 389.502 608.342C389.442 607.124 389.401 605.897 389.355 604.678L389.28 602.686C389.136 599.141 388.72 595.612 388.035 592.131C387.725 590.615 387.394 589.224 387 587.896C386.996 587.828 386.977 587.761 386.945 587.7C386.913 587.639 386.868 587.585 386.814 587.543C386.76 587.5 386.697 587.469 386.63 587.453C386.564 587.436 386.494 587.433 386.426 587.445L386.251 587.473L386.272 587.642ZM388.463 590C388.428 590.353 388.469 590.71 388.582 591.047L388.651 591.33C389.452 595.215 389.943 599.157 390.122 603.119L390.255 606.364C390.285 607.329 390.315 608.294 390.36 609.257C390.485 611.772 390.932 614.26 391.689 616.661C391.696 616.777 391.739 616.888 391.813 616.977C391.886 617.067 391.986 617.131 392.098 617.161L392.153 617.204L392.203 617.141C392.277 617.082 392.335 617.005 392.37 616.917C392.406 616.829 392.418 616.734 392.406 616.639L392.449 616.584L392.528 615.222C392.613 613.673 392.712 612.123 392.783 610.576C392.834 609.637 392.879 608.706 392.91 607.777L393.015 605.392C393.059 604.255 392.992 603.115 392.814 601.991C392.24 597.956 391.025 594.039 389.215 590.387C389.174 590.271 389.102 590.17 389.006 590.094C388.909 590.019 388.794 589.972 388.672 589.961L388.475 589.92L388.463 590ZM323.028 602.997C323.231 603.319 323.519 603.58 323.859 603.752L323.953 603.826C326.316 605.269 328.602 606.832 330.803 608.51C332.769 610.054 334.858 611.442 336.612 612.642C340.314 615.127 344.48 616.839 348.86 617.675C352.258 618.371 355.707 618.794 359.174 618.937C360.386 619.013 361.538 619.053 362.721 619.117L363.466 619.156C364.311 619.183 365.153 619.275 365.984 619.431C366.275 619.485 366.569 619.517 366.864 619.525L367.044 619.539C367.365 619.583 367.692 619.563 368.006 619.481L368.529 619.332L367.482 618.853C367.165 618.705 366.916 618.586 366.646 618.476C364.68 617.644 362.672 616.915 360.63 616.292L355.661 614.829C354.048 614.358 352.424 613.883 350.79 613.405L350.244 613.243C346.677 612.182 343.016 611.111 339.471 609.699C337.079 608.761 334.699 607.679 332.385 606.675L330.609 605.877C328.561 604.954 326.501 604.048 324.441 603.141L324.261 603.063C323.933 602.897 323.575 602.802 323.209 602.783L322.845 602.777L323.028 602.997ZM324.512 601.836L324.444 601.923L324.29 602.119L324.596 602.36C324.663 602.431 324.74 602.491 324.824 602.54C327.086 603.465 329.347 604.504 331.539 605.502C332.708 606.038 333.884 606.581 335.064 607.101C338.326 608.587 341.672 609.879 345.086 610.97C348.886 612.138 352.004 613.074 354.912 613.922L356.253 614.302C360.477 615.436 364.632 616.811 368.698 618.422L368.906 618.076L368.701 617.916C368.599 617.835 368.489 617.749 368.379 617.662L367.239 616.767C366.295 616.025 365.307 615.325 364.326 614.63C360.469 611.9 356.303 609.634 351.915 607.879C347.982 606.312 343.923 605.083 339.781 604.207C337.59 603.757 335.4 603.308 332.899 602.881C331.307 602.61 329.669 602.379 328.09 602.155L326.104 601.866L326.01 601.856C325.794 601.813 325.574 601.789 325.354 601.785L325.18 601.763C325.062 601.734 324.939 601.729 324.819 601.748C324.699 601.767 324.584 601.811 324.481 601.876L324.512 601.836ZM378.625 562.009C378.562 562.055 378.513 562.118 378.483 562.19L377.429 564.389C376.506 566.309 375.547 568.289 374.658 570.262C373.873 572.053 373.352 573.948 373.111 575.888C372.905 577.366 372.801 578.856 372.798 580.349C372.809 582.248 372.955 584.144 373.237 586.022C373.502 587.82 373.82 589.634 374.114 591.379C374.607 594.183 375.11 597.071 375.434 599.945L375.397 599.992C375.388 600.11 375.417 600.228 375.479 600.329C375.541 600.43 375.633 600.51 375.742 600.556L375.935 600.618L376.025 600.358L376.089 600.18C376.724 597.07 377.169 593.925 377.423 590.761L377.489 590.127C377.655 588.476 377.732 586.807 377.801 585.182L377.897 583.134C377.977 581.722 377.967 580.277 377.957 578.882C377.949 578.164 377.941 577.446 377.949 576.74C377.989 573.452 378.176 570.203 378.368 567.467C378.406 566.949 378.471 566.429 378.545 565.914L378.61 565.444L378.894 563.124L379.1 561.632L378.654 561.956L378.625 562.009ZM380.451 559.832L380.315 560.005C380.247 560.092 380.198 560.192 380.172 560.3C379.867 561.917 379.516 563.74 379.342 565.548L379.276 566.247C379.247 566.656 379.209 567.06 379.177 567.441C378.822 570.203 378.67 572.987 378.723 575.771C378.74 576.623 378.736 577.486 378.745 578.332C378.748 579.478 378.744 580.633 378.768 581.783C378.756 585.122 378.535 588.458 378.107 591.769L378.025 592.569C377.91 593.637 377.754 594.71 377.595 595.755L377.421 596.979L377.192 598.516L376.99 599.858L377.433 599.392C377.74 599.044 377.982 598.644 378.146 598.21C379.254 595.456 380.153 592.919 380.877 590.461C381.957 587.024 382.543 583.45 382.616 579.848C382.619 579.392 382.605 578.923 382.593 578.469C382.582 578.014 382.566 577.468 382.577 576.968C382.572 574.91 382.433 572.855 382.16 570.815C381.955 568.988 381.722 567.164 381.497 565.347L381.163 562.681L380.826 559.872L380.753 559.268L380.451 559.832ZM337.391 556.671C337.394 556.813 337.405 556.911 337.4 556.983C337.4 557.074 337.416 557.163 337.446 557.248C339.456 561.524 341.71 565.681 344.195 569.7C346.433 573.213 348.928 576.624 351.126 579.572C354.594 584.152 357.743 588.964 360.552 593.974C362.18 596.826 363.55 599.817 364.644 602.913C364.699 602.956 364.691 603.064 364.713 603.132C364.773 603.446 364.919 603.736 365.134 603.972L365.331 604.126L365.492 603.922C365.566 603.841 365.611 603.738 365.62 603.629C365.626 603.265 365.633 602.901 365.603 602.534L365.557 601.977L365.509 601.456C365.324 598.183 364.715 594.947 363.7 591.831C362.973 589.518 361.954 587.19 361.01 584.96L360.939 584.905C359.094 580.868 356.511 577.211 353.322 574.124C352.417 573.172 351.486 572.236 350.561 571.293C349.849 570.581 349.192 569.912 348.517 569.217C346.664 567.303 344.915 565.255 343.21 563.266C342.381 562.297 341.545 561.322 340.711 560.361C340.585 560.22 340.467 560.073 340.358 559.919C340.256 559.838 340.205 559.709 340.121 559.605L337.28 556.1L337.391 556.671ZM336.323 557.739C336.352 558.15 336.42 558.556 336.525 558.954L336.579 559.161C337.467 562.886 338.616 566.473 339.659 569.581C340.803 572.775 342.194 575.875 343.819 578.853C346.555 583.982 349.841 588.799 353.618 593.218C356.703 596.914 359.966 600.369 363.227 603.567C363.289 603.67 363.386 603.747 363.5 603.786C363.614 603.824 363.738 603.821 363.85 603.777L363.945 603.737L364.001 603.666C364.042 603.387 363.996 603.101 363.867 602.849C363.839 602.785 363.814 602.719 363.794 602.651C363.159 600.816 362.397 599.028 361.514 597.299C358.639 591.752 355.314 586.451 351.572 581.449C349.336 578.42 347.404 575.731 345.638 573.237C342.483 568.633 339.708 563.781 337.339 558.728L337.245 558.54C337.12 558.207 336.923 557.904 336.669 557.655L336.275 557.346L336.323 557.739Z" fill="url(#paint1_linear_301_36)"/>
<path opacity="0.35" d="M47.9294 90.3639C48.6097 89.8531 49.2997 89.3519 49.9761 88.8334C50.2354 88.6369 50.5292 88.4907 50.8424 88.4025L51.7834 88.1565C52.7688 87.9121 53.7602 87.7083 54.7358 87.435C56.0448 87.0648 57.3657 86.7369 58.6551 86.3089C60.4548 85.6835 62.2052 84.9244 63.8916 84.0379C64.5782 83.6856 65.2401 83.2874 65.873 82.846C67.2418 81.8978 68.5425 80.8631 69.8274 79.7976C70.9745 78.8608 72.0697 77.8621 73.108 76.8061C73.7736 76.1235 74.41 75.4121 75.0717 74.7218C76.6463 73.0826 78.1567 71.3839 79.6459 69.6719C80.4297 68.7644 81.1882 67.8359 81.9565 66.9169C82.1285 66.7442 82.2551 66.5316 82.325 66.2982C82.3474 66.2148 82.3478 66.127 82.3262 66.0434C82.3046 65.9598 82.2618 65.8832 82.2019 65.821C82.142 65.7589 82.067 65.7132 81.9843 65.6886C81.9016 65.6639 81.8139 65.661 81.7297 65.6803C81.573 65.7236 81.4208 65.7815 81.275 65.8534C80.6761 66.1144 80.0926 66.3869 79.4917 66.6344C77.9315 67.2826 76.3691 67.898 74.8226 68.5635C74.081 68.868 73.3432 69.1609 72.613 69.4306C71.8827 69.7002 71 69.9845 70.2083 70.3048C67.5452 71.3674 65.0785 72.8678 62.9101 74.7437C61.9422 75.6084 61.028 76.5313 60.1727 77.5075C59.2353 78.5512 58.3192 79.6084 57.3779 80.6444C56.6215 81.5027 55.8109 82.3116 54.951 83.066C53.8583 83.995 52.7249 84.9106 51.5464 85.7281C50.1374 86.721 48.7225 87.7121 47.2295 88.5877C47.0776 88.6796 46.9159 88.7618 46.7542 88.844C46.7363 88.8508 46.7169 88.8527 46.698 88.8497C46.6791 88.8467 46.6613 88.8388 46.6464 88.8268C46.6315 88.8148 46.62 88.7992 46.613 88.7813C46.606 88.7635 46.6038 88.7442 46.6066 88.7253C46.7144 88.3942 46.8203 88.069 46.9263 87.7437C47.8499 85.12 48.9149 82.5482 50.1165 80.0396C51.1868 77.8185 52.2803 75.605 53.3971 73.3991C54.5748 71.0653 55.6885 68.6913 56.6995 66.2775C56.849 65.8784 57.1462 65.552 57.5296 65.3659C58.1771 65.026 58.8028 64.6462 59.4032 64.2287C60.9174 63.2057 62.5105 62.3047 64.1675 61.5341C65.4449 60.9494 66.7894 60.5243 68.1708 60.2684C69.4635 60.047 70.7516 59.7213 72.0261 59.3784C74.316 58.7468 76.5303 57.8675 78.6298 56.7561C80.5919 55.7288 82.4337 54.4865 84.1211 53.052C85.0564 52.271 85.9391 51.415 86.7987 50.5707C88.8152 48.6565 90.72 46.6279 92.5035 44.495C93.2257 43.6188 93.9732 42.7638 94.7109 41.8991C94.7898 41.8073 94.8572 41.7063 94.9117 41.5983C94.992 41.4669 95.0317 41.3147 95.0259 41.1607C95.02 41.0068 94.9688 40.8581 94.8787 40.7332C94.7808 40.629 94.6555 40.5546 94.5171 40.5186C94.3788 40.4826 94.2331 40.4866 94.0969 40.5299L93.9792 40.5558L93.0364 40.8076C91.7677 41.1525 90.523 41.6015 89.282 42.0388C86.795 42.8552 84.3634 43.8314 82.0024 44.9613C80.8955 45.5195 79.7691 46.0391 78.7111 46.6838C75.8407 48.4528 73.1772 50.5373 70.7703 52.8986C69.3388 54.276 67.9695 55.7188 66.4777 57.0445C65.4315 57.9885 64.3791 58.8921 63.2471 59.7247C61.77 60.7643 60.2163 61.6906 58.5993 62.4958C58.53 62.531 58.4609 62.5856 58.3717 62.5437C58.2826 62.5018 58.3955 62.3523 58.4587 62.2765C58.6894 61.8249 58.9142 61.3713 59.1661 60.933C60.5993 58.3869 62.0983 55.8751 63.615 53.3883C64.1559 52.506 64.7588 51.6634 65.4192 50.8666C66.1918 49.9161 67.1525 49.1355 68.241 48.5736C69.1392 48.1038 70.0459 47.6475 70.961 47.2047C72.2201 46.5933 73.4988 46.0205 74.7598 45.4033C76.0908 44.7502 77.3459 43.9525 78.5024 43.0248C80.4773 41.4344 82.298 39.6614 83.9403 37.7294C84.9561 36.5827 85.8169 35.3405 86.7027 34.1001C88.2392 31.9771 89.5513 29.7004 90.6177 27.3065C91.3595 25.6209 92.1066 23.8792 92.9219 22.2046C92.9465 22.1291 92.971 22.0536 92.9975 21.9723C93.2221 21.4801 92.8835 21.1193 92.3968 21.1342C92.2556 21.1482 92.1183 21.1884 91.992 21.2529C91.734 21.3745 91.478 21.5095 91.222 21.6445C89.077 22.9246 86.8752 24.0832 84.6698 25.2922C82.8512 26.2802 81.0443 27.2913 79.3293 28.4544C76.0943 30.6338 73.3412 33.4542 71.2405 36.7409C70.2611 38.3064 69.3907 39.9376 68.6355 41.6227C67.5531 43.9597 66.3777 46.2536 65.1093 48.5044C65.0112 48.689 64.9034 48.8683 64.7865 49.0417C63.8857 50.3479 63.0508 51.6884 62.2509 53.0596C61.6456 54.0895 61.0385 55.1252 60.4274 56.1531C60.3896 56.2693 60.3366 56.4319 60.1202 56.4257C60.1187 55.9177 60.0959 55.4156 60.1118 54.9133C60.1593 53.1036 60.4603 51.3095 61.0061 49.5835C61.5823 47.7425 62.0112 45.8586 62.2886 43.9496C62.4977 42.5234 62.5525 41.0788 62.4521 39.6409C62.3886 38.83 62.3348 38.0288 62.2403 37.2143C62.2395 36.9819 62.225 36.7498 62.1969 36.5192C61.7495 34.3301 61.0584 32.198 60.1365 30.1627C59.8383 29.5003 59.5285 28.8341 59.2477 28.158C58.5533 26.4236 58.0173 24.63 57.6461 22.799C57.5242 22.2068 57.3907 21.6109 57.2765 21.0148C57.2488 20.8338 57.1824 20.661 57.0818 20.5081C57.0336 20.429 56.965 20.3645 56.8832 20.3212C56.8014 20.278 56.7094 20.2577 56.6169 20.2625C56.5245 20.2673 56.4351 20.297 56.3582 20.3485C56.2813 20.3999 56.2197 20.4712 56.18 20.5548C56.0857 20.7578 56.0377 20.9792 56.0396 21.2029C56.0154 21.6126 56.0007 22.0126 55.9842 22.4183C55.9203 23.798 55.8757 25.1775 55.7055 26.5482C55.5831 27.5747 55.4241 28.5958 55.3114 29.6319C55.0886 31.4474 55.0598 33.2814 55.2254 35.103C55.2689 35.5218 55.297 35.9485 55.3443 36.3751C55.4519 37.3632 55.6382 38.3412 55.9014 39.2997C56.3157 40.8286 56.8474 42.3123 57.3465 43.8175C57.6089 44.6096 57.8423 45.4116 58.0854 46.2038C58.1309 46.36 58.0697 46.4493 57.9015 46.433C57.7293 46.4173 57.5564 46.4558 57.4071 46.5431C57.2578 46.6303 57.1394 46.762 57.0685 46.9198C56.8372 47.2748 56.6001 47.628 56.3475 47.9698C55.0808 49.7286 53.8407 51.511 52.6272 53.3171C51.8772 54.4051 51.29 55.5968 50.8841 56.8544C50.6779 57.4874 50.4698 58.1263 50.2617 58.7652C49.8985 59.8803 49.5334 61.0013 49.2399 62.1391L47.9342 67.2129C47.71 68.0987 47.4149 68.965 47.0519 69.8035C46.5918 70.8614 46.0638 71.8907 45.5416 72.922C45.5416 72.922 45.5126 72.9125 45.4434 72.9671C45.3528 72.7267 45.292 72.476 45.2625 72.2208C45.1461 71.3156 44.9758 70.4186 44.8111 69.5041C44.6595 68.9117 44.6586 68.2909 44.8083 67.698C45.326 66.0101 45.8146 64.3126 46.3206 62.6209C46.5665 61.8658 46.8106 61.1166 47.0216 60.3502C47.3255 59.3185 47.641 58.2907 47.8617 57.2383C48.218 55.6049 48.3886 53.9364 48.3703 52.2646C48.3515 50.541 48.1781 48.8226 47.852 47.13C47.5616 45.635 47.2366 44.1479 46.9327 42.6549C46.8187 42.0974 46.7106 41.5418 46.6507 40.9763C46.4107 39.1852 46.2796 37.3812 46.2581 35.5742C46.2676 35.3695 46.2001 35.1687 46.0688 35.0115C46.0222 34.9581 45.9649 34.9151 45.9005 34.8855C45.8362 34.8559 45.7663 34.8403 45.6954 34.8397C45.6246 34.8391 45.5544 34.8535 45.4896 34.882C45.4247 34.9105 45.3667 34.9524 45.3192 35.005C45.2261 35.1126 45.1601 35.2409 45.1267 35.3792C45.0321 35.6696 44.9375 35.96 44.8836 36.2636C44.3921 38.1079 43.86 39.9389 43.2698 41.751C42.6117 43.7346 42.0735 45.756 41.658 47.8043C41.1125 50.6186 40.9562 53.4944 41.1933 56.3512C41.2709 57.2373 41.3871 58.1231 41.4937 59.0187C41.7186 60.8136 42.0456 62.5904 42.3804 64.3633C42.6893 66.0186 42.9789 67.6739 43.226 69.3412C43.4428 70.8058 43.5553 72.275 43.718 73.7478C43.7596 74.1724 43.722 74.6035 43.7578 75.0456C43.8989 76.9276 43.9145 78.817 43.8045 80.7011C43.6808 83.4166 43.3794 86.1211 42.9021 88.7971C42.7928 89.6088 42.5976 90.4066 42.3197 91.1771C41.7499 92.5911 41.2635 94.0451 40.6588 95.4285C39.4281 98.259 37.9971 100.998 36.3767 103.625C36.3227 103.71 36.2583 103.789 36.1851 103.858C36.1851 103.858 36.098 103.83 36.0864 103.826C36.0704 103.749 36.0679 103.67 36.079 103.592C36.2351 102.423 36.3894 101.259 36.5745 100.098C36.9016 98.0334 37.3526 95.99 37.9251 93.9793C38.0074 93.6466 38.1373 93.3276 38.3108 93.032C38.4903 92.7372 38.6427 92.4271 38.8009 92.1189C39.4272 90.82 39.9533 89.4751 40.3745 88.096C40.7834 86.7778 41.2824 85.4894 41.8682 84.2397C42.3253 83.2901 42.7784 82.3327 43.2239 81.3793C43.3531 81.1037 43.4685 80.8218 43.5696 80.5347C43.6158 80.4201 43.6219 80.2932 43.5871 80.1747C43.5523 80.0561 43.4785 79.9527 43.3778 79.8812C43.2829 79.8065 43.164 79.769 43.0434 79.7759C42.9228 79.7828 42.8089 79.8335 42.7232 79.9185C42.4726 80.1252 42.2336 80.3455 42.0072 80.5783C41.1726 81.405 40.342 82.2394 39.5016 83.0642C37.6769 84.8597 35.7861 86.5822 34.1131 88.5235C33.526 89.1943 32.9756 89.8964 32.4644 90.6268C31.4981 92.0855 30.743 93.6736 30.2214 95.3439C29.8885 96.3661 29.6078 97.4053 29.3155 98.4408C28.8391 100.056 28.1872 101.615 27.3714 103.088C27.3431 103.175 27.3052 103.292 27.1679 103.26C27.1219 103.104 27.1201 102.939 27.1626 102.783C27.2738 101.534 27.3697 100.312 27.4115 99.0798C27.4482 97.9611 27.4984 96.8404 27.5062 95.7315C27.5007 94.9203 27.5337 94.1088 27.4876 93.3036C27.4621 92.2869 27.3492 91.2743 27.15 90.2771C27.1359 90.2018 27.1315 90.1169 27.1193 90.0358C27.0904 89.8969 27.0918 89.7535 27.1236 89.6152C27.1553 89.477 27.2165 89.3472 27.3031 89.2348C27.5098 88.9553 27.6894 88.6604 27.8844 88.377C28.8389 86.9855 29.6285 85.4879 30.2374 83.9142C31.1122 81.6819 31.6462 79.3308 31.8216 76.9396C31.931 75.6244 31.9535 74.3033 31.8891 72.9851C31.8331 72.1968 31.7349 71.4121 31.5947 70.6343C31.3958 69.4303 31.1423 68.2364 30.8341 67.0525C30.4426 65.4538 30.0067 63.8729 29.6923 62.2544C29.4803 61.1616 29.373 60.0511 29.372 58.938C29.3579 57.742 29.4233 56.5465 29.5676 55.3592C29.5895 55.2381 29.5952 55.1146 29.5844 54.9921C29.5766 54.871 29.533 54.755 29.459 54.6588C29.3851 54.5627 29.2842 54.4907 29.1692 54.4521C29.0506 54.4195 28.9243 54.429 28.8119 54.4791C28.6995 54.5292 28.608 54.6167 28.5529 54.7268C28.4478 54.9037 28.3592 55.0899 28.2883 55.283C27.1259 58.1614 25.9578 61.038 24.8303 63.9278C24.1052 65.7162 23.5608 67.5726 23.2052 69.4693C22.8118 71.6059 22.6789 73.7823 22.8094 75.9508C22.9164 77.6744 23.1392 79.3889 23.4764 81.0825C23.6606 82.0162 23.8312 82.9519 24.0076 83.8894C24.266 85.2263 24.561 86.5494 24.7789 87.8923C24.9785 89.1137 25.1183 90.3413 25.2369 91.5748C25.4052 93.287 25.5715 95.005 25.5931 96.7337C25.6039 97.7458 25.5761 98.7582 25.5541 99.7725C25.5689 99.9351 25.5358 100.099 25.4588 100.243C25.4341 100.204 25.4131 100.162 25.3962 100.119C25.3489 99.9883 25.3035 99.8515 25.264 99.7165C24.6877 97.834 23.9693 95.9979 23.1149 94.2242C22.9229 93.8813 22.8274 93.4927 22.8386 93.0999C22.8627 92.025 22.8004 90.9499 22.6523 89.885C22.568 89.138 22.4238 88.3972 22.2835 87.6642C22.1268 86.9092 21.923 86.1648 21.6732 85.4354C21.1609 83.7856 20.4454 82.206 19.5431 80.7329C18.4001 78.932 17.0569 77.2661 15.5393 75.7672C14.063 74.2841 12.6135 72.7778 11.2391 71.2187C10.0858 69.9627 9.07182 68.5857 8.21476 67.1116C8.04271 66.8114 7.88607 66.5034 7.71401 66.2033C7.54196 65.9031 7.45971 65.7414 7.294 65.5204C7.23339 65.4135 7.13721 65.3312 7.02221 65.2879C6.90721 65.2446 6.78068 65.243 6.66459 65.2833C6.54634 65.3199 6.44329 65.3942 6.3711 65.4947C6.29892 65.5953 6.26154 65.7167 6.2647 65.8405C6.26509 66.0022 6.27912 66.1637 6.30665 66.3231C6.39964 66.9251 6.50615 67.5251 6.59334 68.1253C6.7356 69.1481 6.86246 70.1787 7.00472 71.2015C7.01701 71.3019 7.0293 71.4022 7.04928 71.4987C7.33764 72.9802 7.7262 74.4301 8.13019 75.8722C8.76216 78.125 9.76875 80.2554 11.1078 82.1741C11.656 82.9565 12.2579 83.6922 12.8388 84.4531C14.0008 85.9975 15.2479 87.476 16.5742 88.8818C17.7241 90.085 18.8644 91.298 19.8953 92.6102C20.4447 93.2888 20.9302 94.0169 21.3455 94.7849C22.0227 96.0784 22.6307 97.407 23.2001 98.7553C23.7939 100.138 24.137 101.616 24.2134 103.12C24.2358 103.564 24.2311 104.012 24.2342 104.456C24.2285 105.026 24.2555 105.594 24.2054 106.162C23.9589 108.855 23.2661 111.489 22.1554 113.955C21.5392 115.324 20.8474 116.658 20.0832 117.95C19.3315 119.242 18.4687 120.466 17.5045 121.607C16.3225 123.028 15.0568 124.369 13.7504 125.678C12.2444 127.186 10.7287 128.683 9.10979 130.064C7.558 131.37 5.9958 132.662 4.42321 133.94C3.30726 134.862 2.20442 135.723 1.07646 136.583C-1.16667 138.229 -3.51043 139.733 -5.94116 141.087C-6.24131 141.259 -6.54147 141.431 -6.82217 141.623C-6.98009 141.718 -7.10441 141.861 -7.17798 142.03C-7.25155 142.199 -7.27074 142.387 -7.2329 142.568C-7.17372 142.93 -7.0419 143.277 -6.84536 143.587C-6.77556 143.718 -6.67604 143.832 -6.55476 143.917C-6.43348 144.003 -6.29379 144.06 -6.14686 144.082C-5.99994 144.104 -5.84983 144.092 -5.70855 144.046C-5.56728 144 -5.43875 143.921 -5.33322 143.816C-5.14997 143.651 -4.95473 143.5 -4.74911 143.364C-2.02217 141.599 0.669667 139.784 3.27371 137.844C6.54656 135.409 9.77445 132.895 12.9753 130.385C13.3576 130.079 13.7283 129.77 14.1029 129.468C14.2839 129.306 14.508 129.2 14.7479 129.164C15.508 129.033 16.2607 128.863 17.0025 128.652C18.2018 128.342 19.3914 128.004 20.5927 127.708C22.8193 127.171 24.9935 126.437 27.0893 125.513C28.1465 125.048 28.044 125.027 29.1476 125.11C30.4859 125.139 31.8248 125.097 33.1588 124.984C33.7235 124.935 34.2908 125.044 34.797 125.299C35.0627 125.45 35.3495 125.576 35.615 125.707C36.8715 126.328 38.1848 126.827 39.5369 127.197C40.3767 127.419 41.2149 127.666 42.053 127.913C43.5887 128.374 45.1552 128.726 46.7406 128.965C48.2843 129.218 49.8555 129.259 51.4103 129.085C52.1359 128.987 52.8537 128.874 53.5812 128.771L53.6277 128.786C54.8429 128.545 56.0404 128.223 57.212 127.821C58.7022 127.289 60.2219 126.845 61.7635 126.489C62.2418 126.382 62.7283 126.347 63.2029 126.251C64.6422 125.993 66.1068 125.906 67.5666 125.99C68.297 126.015 69.0272 126.022 69.7479 126.058C69.86 126.064 69.9723 126.047 70.0772 126.007C70.1822 125.967 70.2774 125.905 70.3567 125.825C70.4106 125.779 70.4534 125.721 70.4821 125.655C70.5107 125.59 70.5246 125.519 70.5226 125.448C70.5206 125.377 70.5029 125.307 70.4707 125.243C70.4384 125.179 70.3925 125.124 70.3361 125.08C70.2392 125.007 70.1337 124.947 70.022 124.901C69.8701 124.841 69.7149 124.791 69.5573 124.749C67.6257 124.191 65.7054 123.597 63.8306 122.884C62.8835 122.518 61.927 122.18 60.9437 121.886C59.4561 121.407 57.9341 121.042 56.391 120.795C55.5731 120.683 54.7419 120.592 53.9221 120.485C52.4945 120.287 51.0483 120.258 49.6139 120.399C48.667 120.471 47.7245 120.593 46.7904 120.764C45.8164 120.974 44.8423 121.184 43.8978 121.48C42.0763 122.043 40.2607 122.627 38.3976 123.042C37.3445 123.277 36.2791 123.412 35.218 123.593C35.0983 123.609 34.9777 123.617 34.8569 123.617L31.7549 123.653C31.5938 123.673 31.4304 123.655 31.2774 123.601L31.2252 123.584C31.2252 123.584 31.2149 123.497 31.2573 123.485C31.3017 123.442 31.3507 123.404 31.4034 123.372C32.8978 122.432 34.3786 121.476 35.791 120.413C35.9486 120.284 36.1382 120.199 36.3399 120.168C36.9265 120.083 37.4975 119.967 38.0882 119.909C39.5261 119.735 40.9523 119.557 42.3844 119.381L42.5658 119.356C44.3416 119.014 46.0686 118.454 47.708 117.691C48.8255 117.16 49.9004 116.543 50.9232 115.847C52.7 114.661 54.2786 113.202 55.6009 111.525C56.4793 110.408 57.2892 109.238 58.0261 108.023C58.6287 107.035 59.3047 106.093 60.0485 105.206C61.1753 103.9 62.4011 102.682 63.7148 101.563C64.8245 100.582 65.944 99.6104 67.1375 98.7271C67.3102 98.5954 67.4323 98.4084 67.4835 98.1974C67.5147 98.1049 67.5216 98.006 67.5035 97.91C67.4854 97.8141 67.4428 97.7245 67.38 97.6498C67.3172 97.5751 67.2362 97.5179 67.1448 97.4836C67.0534 97.4493 66.9547 97.4392 66.8583 97.4541C66.6562 97.4787 66.4576 97.5261 66.2662 97.5953C65.2698 97.9132 64.2717 98.2755 63.2675 98.5973C61.7179 99.0947 60.2271 99.727 58.7149 100.327C55.1986 101.696 51.9433 103.658 49.0907 106.128C48.1808 106.949 47.2963 107.83 46.4351 108.719C45.3169 109.865 44.1772 110.997 43.0433 112.111C41.6984 113.44 40.3553 114.763 38.9675 116.045C36.3933 118.375 33.5738 120.418 30.5585 122.14C29.8716 122.532 29.1596 122.88 28.4273 123.18C28.2578 123.247 28.0882 123.314 27.9167 123.367C27.7451 123.42 27.6611 123.284 27.7045 123.131C27.8483 122.689 27.9649 122.233 28.1087 121.791C28.3831 120.83 28.9251 119.966 29.6716 119.3C30.0768 118.93 30.4586 118.535 30.8147 118.118C32.1655 116.598 33.2335 114.848 33.9684 112.952C34.1575 112.371 34.3335 111.831 34.5499 111.285C34.6379 111.014 34.7728 110.76 34.9484 110.535C35.7086 109.562 36.4591 108.579 37.194 107.585C37.5213 107.152 37.8408 106.704 38.1487 106.252C39.2866 104.592 40.3392 102.879 41.3374 101.136C42.0055 99.9722 42.6775 98.8163 43.268 97.6146C43.9633 96.1927 44.5781 94.7329 45.1097 93.2421C45.2516 92.8065 45.2497 92.8123 45.7171 92.7975C46.7708 92.7721 47.8221 92.6856 48.8658 92.5383C50.0353 92.3796 51.1969 92.2054 52.3605 92.0255C52.7615 91.9618 53.1724 92.0153 53.5437 92.1796C54.3703 92.5216 55.2012 92.8501 56.0366 93.165C57.2505 93.631 58.4918 94.0225 59.7534 94.337C61.3705 94.7015 63.0152 94.9299 64.6703 95.0198C65.925 95.1029 67.1835 95.1117 68.4392 95.0461C70.2439 94.928 72.0295 94.6066 73.762 94.088C76.8429 93.2285 79.9263 92.3612 83.0122 91.4861C83.7236 91.2746 84.4443 91.0339 85.1632 90.7991C85.4454 90.7263 85.7082 90.5926 85.9332 90.4075C86.0057 90.3507 86.0628 90.2767 86.0992 90.1922C86.1356 90.1077 86.1503 90.0154 86.1418 89.9237C86.1332 89.8321 86.1019 89.744 86.0505 89.6677C85.9991 89.5913 85.9294 89.5291 85.8477 89.4867C85.7228 89.4161 85.5893 89.3619 85.4506 89.3252C85.2589 89.2628 85.054 89.241 84.8471 89.2057C83.6867 89.0012 82.5225 88.8084 81.3678 88.5864C79.1763 88.1746 76.9736 87.7977 74.7601 87.5521C73.2478 87.383 71.7246 87.3315 70.2042 87.3981C70.0613 87.4029 69.9184 87.4077 69.7735 87.3991C68.9416 87.3787 68.1096 87.4369 67.2886 87.5727C66.0247 87.7649 64.7727 87.9995 63.5108 88.2052C62.2489 88.4109 61.0031 88.7054 59.759 88.9747C58.7869 89.1849 57.8168 89.4021 56.8486 89.6264C55.732 89.8554 54.6042 90.0263 53.4698 90.1384C51.6383 90.377 49.7941 90.4573 47.944 90.5164C47.944 90.5164 47.8801 90.4956 47.8453 90.4842C47.8104 90.4729 47.9044 90.3814 47.9294 90.3639ZM58.7869 49.336C58.8858 49.9593 58.9655 50.5826 59.0451 51.206C59.0757 51.4473 59.0793 51.6926 59.0907 51.9339C59.102 52.1753 59.0739 52.3011 59.0925 52.4806C59.1604 53.8181 59.1043 55.1589 58.925 56.4861C58.7728 57.6948 58.5174 58.8882 58.1614 60.0533C58.1041 60.2252 58.0268 60.3898 57.9311 60.5436C57.0455 62.0989 56.1462 63.6369 55.2723 65.196C54.4823 66.6154 53.7021 68.0444 52.9645 69.4808C52.0493 71.2256 51.1457 72.9742 50.2538 74.7266C49.1789 76.8433 48.2145 79.0154 47.2171 81.1702C46.9373 81.7729 46.6556 82.3814 46.3681 82.988C46.3322 83.0983 46.2924 83.2203 46.1614 83.2675C46.1614 83.2675 46.0917 83.2448 46.1048 83.1849C46.1222 82.0663 46.1049 80.9557 46.0432 79.8435C45.9814 78.7313 45.9848 77.8138 45.8774 76.8023C45.8603 76.5603 45.8935 76.3174 45.9748 76.0889C46.2636 75.1585 46.6369 74.2565 47.0902 73.3942C47.4181 72.7623 47.7402 72.1284 48.0448 71.4888C48.2057 71.1362 48.4454 70.8252 48.7455 70.58C49.1374 70.2644 49.5176 69.9257 49.9114 69.6042C51.2107 68.5278 52.3295 67.2504 53.2252 65.8205C55.0525 63.0242 56.2634 59.871 56.7776 56.5704C57.1567 54.1242 57.4975 51.717 57.8652 49.2864C57.9648 48.6057 58.1186 47.9363 58.2433 47.2574C58.5144 47.9236 58.6972 48.6224 58.7869 49.336ZM24.1547 114.799C25.1394 112.68 25.856 110.447 26.2879 108.151C26.4098 107.352 26.7518 106.602 27.2755 105.986C27.9813 105.173 28.5675 104.263 29.0166 103.284C29.2206 102.842 29.5272 102.455 29.9109 102.155C30.3913 101.785 30.8541 101.39 31.3306 101.011C31.4094 100.949 31.4922 100.893 31.5786 100.842C31.588 100.841 31.5975 100.842 31.6065 100.845C31.6155 100.848 31.6238 100.852 31.6309 100.859C31.6309 100.859 31.6758 100.938 31.6702 100.955C31.6266 101.089 31.5251 101.203 31.4486 101.32C30.3863 102.882 29.5232 104.572 28.8793 106.348C28.3007 108.058 27.8922 109.821 27.66 111.611C27.6048 112.017 27.5439 112.421 27.5292 112.821C27.5213 113.169 27.3765 113.501 27.1261 113.743C26.7885 114.089 26.4587 114.451 26.1367 114.808C24.9706 116.022 23.8025 117.235 22.6326 118.447C22.5731 118.511 22.5138 118.594 22.3921 118.593C22.9878 117.297 23.58 116.051 24.1547 114.799ZM27.0526 118.505C26.7905 120.423 26.1172 122.261 25.0788 123.894C24.9782 124.071 24.842 124.224 24.6789 124.344C24.5157 124.465 24.3292 124.55 24.1314 124.594C23.0419 124.882 21.97 125.175 20.8864 125.465C20.2404 125.633 19.5848 125.792 18.9407 125.955C18.7503 126.017 18.5501 126.044 18.3501 126.033C18.3728 125.963 18.388 125.917 18.3974 125.888C21.2641 123.378 24.1522 120.882 26.9546 118.293L27.0127 118.312C27.0979 118.346 27.0598 118.424 27.0526 118.505Z" fill="url(#paint2_linear_301_36)"/>
<path d="M229.858 300.75C229.957 300.75 230.006 300.898 230.006 301.194C230.006 301.49 229.957 301.638 229.858 301.638C228.033 301.638 226.306 302.427 224.678 304.006C223.099 305.535 221.792 307.657 220.756 310.37L207.066 346.926C207.017 347.123 206.745 347.222 206.252 347.222C205.759 347.222 205.487 347.123 205.438 346.926L195.966 326.872L188.492 346.926C188.443 347.123 188.171 347.222 187.678 347.222C187.185 347.222 186.913 347.123 186.864 346.926L167.994 306.892C167.254 305.313 166.637 304.179 166.144 303.488C165.7 302.797 165.182 302.329 164.59 302.082C164.047 301.786 163.307 301.638 162.37 301.638C162.222 301.638 162.148 301.49 162.148 301.194C162.148 300.898 162.222 300.75 162.37 300.75C163.11 300.75 163.628 300.775 163.924 300.824C164.911 300.923 166.193 300.972 167.772 300.972C171.077 300.972 173.865 300.923 176.134 300.824C176.775 300.775 177.565 300.75 178.502 300.75C178.65 300.75 178.724 300.898 178.724 301.194C178.724 301.49 178.65 301.638 178.502 301.638C177.269 301.638 176.381 301.761 175.838 302.008C175.345 302.255 175.098 302.699 175.098 303.34C175.098 304.179 175.665 305.807 176.8 308.224L190.12 336.492L194.782 324.282L186.568 306.892C185.729 305.116 184.94 303.809 184.2 302.97C183.46 302.082 182.671 301.638 181.832 301.638C181.684 301.638 181.61 301.49 181.61 301.194C181.61 300.898 181.684 300.75 181.832 300.75C182.325 300.75 182.893 300.799 183.534 300.898C184.225 300.947 185.187 300.972 186.42 300.972C189.232 300.972 191.575 300.923 193.45 300.824C193.943 300.775 194.585 300.75 195.374 300.75C195.522 300.75 195.596 300.898 195.596 301.194C195.596 301.49 195.522 301.638 195.374 301.638C194.683 301.638 194.165 301.737 193.82 301.934C193.524 302.082 193.376 302.378 193.376 302.822C193.376 303.661 194.042 305.461 195.374 308.224L198.63 315.106L200.48 310.148C201.565 307.336 202.108 305.215 202.108 303.784C202.108 302.353 201.491 301.638 200.258 301.638C200.11 301.638 200.036 301.49 200.036 301.194C200.036 300.898 200.11 300.75 200.258 300.75C200.653 300.75 201.072 300.799 201.516 300.898C202.009 300.947 203.193 300.972 205.068 300.972C205.907 300.972 206.918 300.923 208.102 300.824L210.84 300.75C210.939 300.75 210.988 300.898 210.988 301.194C210.988 301.49 210.939 301.638 210.84 301.638C207.535 301.638 204.797 304.549 202.626 310.37L199.888 317.696L208.768 336.418L218.314 310.888C218.906 309.309 219.202 307.879 219.202 306.596C219.202 305.067 218.807 303.858 218.018 302.97C217.278 302.082 216.267 301.638 214.984 301.638C214.836 301.638 214.762 301.49 214.762 301.194C214.762 300.898 214.836 300.75 214.984 300.75L218.388 300.824C220.164 300.923 221.792 300.972 223.272 300.972C224.259 300.972 225.393 300.923 226.676 300.824L229.858 300.75ZM252.499 342.116C252.598 342.116 252.696 342.215 252.795 342.412C252.943 342.609 252.968 342.757 252.869 342.856C251.044 344.632 249.194 345.915 247.319 346.704C245.444 347.493 243.397 347.888 241.177 347.888C238.069 347.888 235.38 347.247 233.111 345.964C230.842 344.632 229.115 342.881 227.931 340.71C226.747 338.49 226.155 336.097 226.155 333.532C226.155 330.671 226.87 328.031 228.301 325.614C229.732 323.197 231.705 321.297 234.221 319.916C236.786 318.485 239.672 317.77 242.879 317.77C245.938 317.77 248.306 318.461 249.983 319.842C251.66 321.223 252.499 323.369 252.499 326.28C252.499 327.809 252.228 328.574 251.685 328.574L233.703 328.648C233.654 328.993 233.629 329.561 233.629 330.35C233.629 334.691 234.616 338.095 236.589 340.562C238.612 343.029 241.498 344.262 245.247 344.262C246.579 344.262 247.714 344.114 248.651 343.818C249.588 343.522 250.822 342.979 252.351 342.19L252.499 342.116ZM240.067 319.25C238.439 319.25 237.082 319.965 235.997 321.396C234.912 322.777 234.196 324.701 233.851 327.168L244.581 327.02C244.532 324.504 244.162 322.58 243.471 321.248C242.78 319.916 241.646 319.25 240.067 319.25ZM291.505 342.19C291.653 342.19 291.777 342.313 291.875 342.56C292.023 342.807 292.048 342.955 291.949 343.004L281.737 347.962L281.367 348.036C280.923 348.036 280.504 347.567 280.109 346.63C279.764 345.693 279.542 344.41 279.443 342.782C275.793 346.235 272.068 347.962 268.269 347.962C266.099 347.962 264.125 347.395 262.349 346.26C260.623 345.125 259.241 343.473 258.205 341.302C257.169 339.082 256.651 336.492 256.651 333.532C256.651 329.783 257.515 326.724 259.241 324.356C261.017 321.939 263.188 320.187 265.753 319.102C268.368 318.017 270.983 317.474 273.597 317.474C275.423 317.474 277.347 317.77 279.369 318.362V303.414C279.369 301.687 279.197 300.454 278.851 299.714C278.555 298.974 278.013 298.604 277.223 298.604C276.582 298.604 275.669 298.875 274.485 299.418H274.411C274.214 299.418 274.041 299.295 273.893 299.048C273.795 298.752 273.795 298.579 273.893 298.53L284.771 293.424L285.067 293.35C285.314 293.35 285.585 293.473 285.881 293.72C286.177 293.917 286.325 294.115 286.325 294.312V338.416C286.325 340.093 286.473 341.277 286.769 341.968C287.115 342.659 287.657 343.004 288.397 343.004C289.039 343.004 290.05 342.733 291.431 342.19H291.505ZM272.339 344.41C274.806 344.41 277.149 343.374 279.369 341.302V340.932V322.95C278.481 321.717 277.47 320.829 276.335 320.286C275.25 319.694 273.967 319.398 272.487 319.398C269.823 319.398 267.776 320.335 266.345 322.21C264.964 324.035 264.273 327.02 264.273 331.164C264.273 335.308 265.013 338.564 266.493 340.932C267.973 343.251 269.922 344.41 272.339 344.41ZM301.996 310.37C300.565 310.37 299.455 309.975 298.666 309.186C297.877 308.397 297.482 307.287 297.482 305.856C297.482 304.573 297.877 303.562 298.666 302.822C299.505 302.033 300.615 301.638 301.996 301.638C303.377 301.638 304.438 302.008 305.178 302.748C305.918 303.488 306.288 304.524 306.288 305.856C306.288 307.287 305.918 308.397 305.178 309.186C304.438 309.975 303.377 310.37 301.996 310.37ZM294.892 347C294.744 347 294.67 346.852 294.67 346.556C294.67 346.26 294.744 346.112 294.892 346.112C296.421 346.112 297.457 345.767 298 345.076C298.543 344.336 298.814 342.979 298.814 341.006V327.76C298.814 326.083 298.641 324.874 298.296 324.134C297.951 323.394 297.383 323.024 296.594 323.024C295.953 323.024 295.04 323.295 293.856 323.838H293.782C293.585 323.838 293.437 323.715 293.338 323.468C293.239 323.172 293.264 322.999 293.412 322.95L304.586 317.77L304.808 317.696C305.055 317.696 305.301 317.819 305.548 318.066C305.795 318.313 305.918 318.535 305.918 318.732V320.36C305.819 322.333 305.77 324.751 305.77 327.612V341.006C305.77 342.979 306.041 344.336 306.584 345.076C307.176 345.767 308.237 346.112 309.766 346.112C309.914 346.112 309.988 346.26 309.988 346.556C309.988 346.852 309.914 347 309.766 347C308.483 347 307.472 346.975 306.732 346.926L302.292 346.852L297.926 346.926C297.186 346.975 296.175 347 294.892 347ZM349.111 346.112C349.259 346.112 349.333 346.26 349.333 346.556C349.333 346.852 349.259 347 349.111 347C347.829 347 346.817 346.975 346.077 346.926L341.637 346.852L337.345 346.926C336.556 346.975 335.52 347 334.237 347C334.089 347 334.015 346.852 334.015 346.556C334.015 346.26 334.089 346.112 334.237 346.112C335.767 346.112 336.803 345.767 337.345 345.076C337.888 344.336 338.159 342.979 338.159 341.006V330.35C338.159 327.686 337.666 325.713 336.679 324.43C335.742 323.147 334.237 322.506 332.165 322.506C330.981 322.506 329.748 322.753 328.465 323.246C327.232 323.739 326.147 324.405 325.209 325.244V341.006C325.209 342.979 325.481 344.336 326.023 345.076C326.615 345.767 327.676 346.112 329.205 346.112C329.353 346.112 329.427 346.26 329.427 346.556C329.427 346.852 329.353 347 329.205 347C327.923 347 326.911 346.975 326.171 346.926L321.731 346.852L317.365 346.926C316.625 346.975 315.614 347 314.331 347C314.183 347 314.109 346.852 314.109 346.556C314.109 346.26 314.183 346.112 314.331 346.112C315.861 346.112 316.897 345.767 317.439 345.076C317.982 344.336 318.253 342.979 318.253 341.006V327.094C318.253 325.565 318.056 324.455 317.661 323.764C317.316 323.024 316.749 322.654 315.959 322.654C315.121 322.654 313.937 322.999 312.407 323.69H312.259C312.111 323.69 311.988 323.567 311.889 323.32C311.84 323.073 311.865 322.925 311.963 322.876L322.249 317.844C322.545 317.745 322.718 317.696 322.767 317.696C323.31 317.696 323.828 318.239 324.321 319.324C324.815 320.36 325.111 321.791 325.209 323.616C328.613 319.571 332.363 317.548 336.457 317.548C339.121 317.548 341.218 318.411 342.747 320.138C344.326 321.815 345.115 324.035 345.115 326.798V341.006C345.115 342.979 345.387 344.336 345.929 345.076C346.521 345.767 347.582 346.112 349.111 346.112Z" fill="#93632E"/>
<path d="M109 303.566C109 303.566 124.346 295.566 124.346 285.654C124.346 281.327 120.723 277.654 116.346 277.654C111.164 277.654 109 281.277 109 281.277C109 281.277 106.837 277.604 101.654 277.604C97.2768 277.604 93.6542 281.277 93.6542 285.604C93.6542 295.566 109 303.566 109 303.566Z" fill="url(#paint3_linear_301_36)"/>
<path d="M124.346 305.198C107.843 305.198 94.4088 318.632 94.4088 335.135C94.4088 342.632 97.2264 349.474 101.755 354.707C99.239 355.764 96.522 356.317 93.6541 356.317C81.9811 356.317 72.4717 346.808 72.4717 335.135C72.4717 323.462 81.9811 313.952 93.6541 313.952C94.8616 313.952 96.0189 314.053 97.1761 314.254L104.472 307.261C101.101 305.952 97.478 305.248 93.6541 305.248C77.1509 305.198 63.717 318.632 63.717 335.135C63.717 351.638 77.1509 365.072 93.6541 365.072C110.157 365.072 123.591 351.638 123.591 335.135C123.591 327.638 120.673 320.896 116.094 315.613C118.61 314.556 121.428 313.952 124.346 313.952C136.019 313.952 145.528 323.462 145.528 335.135C145.528 346.808 136.019 356.317 124.346 356.317C123.138 356.317 121.981 356.217 120.824 356.015L113.528 363.059C116.899 364.368 120.522 365.072 124.346 365.072C140.849 365.072 154.283 351.638 154.283 335.135C154.283 318.632 140.849 305.198 124.346 305.198ZM109.05 349.676C105.428 345.902 103.164 340.82 103.164 335.185C103.164 329.6 105.377 324.518 108.95 320.745C112.572 324.518 114.887 329.55 114.887 335.185C114.836 340.77 112.623 345.852 109.05 349.676Z" fill="url(#paint4_linear_301_36)"/>
</g>
<defs>
<linearGradient id="paint0_linear_301_36" x1="150.785" y1="286.821" x2="260.723" y2="434.676" gradientUnits="userSpaceOnUse">
<stop stop-color="#76593A"/>
<stop offset="0.02" stop-color="#7D603F"/>
<stop offset="0.12" stop-color="#9E7F53"/>
<stop offset="0.21" stop-color="#B59562"/>
<stop offset="0.3" stop-color="#C3A26B"/>
<stop offset="0.37" stop-color="#C8A76E"/>
</linearGradient>
<linearGradient id="paint1_linear_301_36" x1="355.829" y1="675.167" x2="392.58" y2="557.366" gradientUnits="userSpaceOnUse">
<stop stop-color="#76593A"/>
<stop offset="0.15" stop-color="#C8A76E"/>
<stop offset="0.29" stop-color="#F5ECB5"/>
<stop offset="0.47" stop-color="#C8A76E"/>
<stop offset="1" stop-color="#F5ECB5"/>
</linearGradient>
<linearGradient id="paint2_linear_301_36" x1="7.09889" y1="155.547" x2="85.7953" y2="20.9034" gradientUnits="userSpaceOnUse">
<stop stop-color="#76593A"/>
<stop offset="0.01" stop-color="#7D603F"/>
<stop offset="0.06" stop-color="#9E7F53"/>
<stop offset="0.11" stop-color="#B59562"/>
<stop offset="0.16" stop-color="#C3A26B"/>
<stop offset="0.2" stop-color="#C8A76E"/>
<stop offset="0.75" stop-color="#F5ECB5"/>
<stop offset="1" stop-color="#C8A76E"/>
</linearGradient>
<linearGradient id="paint3_linear_301_36" x1="107.376" y1="298.085" x2="106.609" y2="281.233" gradientUnits="userSpaceOnUse">
<stop stop-color="#93632E"/>
<stop offset="1" stop-color="#B78850"/>
</linearGradient>
<linearGradient id="paint4_linear_301_36" x1="104.208" y1="352.432" x2="102.824" y2="313.537" gradientUnits="userSpaceOnUse">
<stop stop-color="#93632E"/>
<stop offset="1" stop-color="#B78850"/>
</linearGradient>
<clipPath id="clip0_301_36">
<rect width="411" height="823" fill="white"/>
</clipPath>
</defs>
</svg>
